<svg aria-hidden="true" style="position: absolute; width: 0; height: 0; overflow: hidden;" version="1.1" xmlns="http://www.w3.org/2000/svg" xmlns:xlink="http://www.w3.org/1999/xlink">
<defs>
<symbol id="icon-sports_soccer" viewBox="0 0 24 24">
<path d="M18.047 17.203q1.969-2.25 1.969-5.203 0-0.094-0.023-0.188t-0.023-0.141l-0.984-0.75-1.406 0.469-1.453 4.359 0.797 1.359zM14.25 15l1.359-4.031-3.609-2.531-3.609 2.531 1.359 4.031h4.5zM14.484 19.594l0.703-1.5-0.609-1.078h-5.109l-0.656 1.078 0.703 1.5q1.172 0.422 2.484 0.422t2.484-0.422zM7.078 17.109l0.797-1.359-1.453-4.359-1.406-0.469-0.984 0.75q0 0.047-0.023 0.141t-0.023 0.188q0 1.219 0.586 2.742t1.383 2.461zM9.656 4.359q-1.172 0.328-2.461 1.313t-1.945 2.016l0.422 1.359 1.359 0.422 3.984-2.766v-1.406zM12.984 5.297v1.406l3.984 2.766 1.359-0.422 0.422-1.359q-0.656-1.031-1.945-2.016t-2.461-1.313zM12 2.016q4.125 0 7.055 2.93t2.93 7.055-2.93 7.055-7.055 2.93-7.055-2.93-2.93-7.055 2.93-7.055 7.055-2.93z"></path>
</symbol>
<symbol id="icon-home" viewBox="0 0 24 24">
<path d="M2.386 8.211c-0.236 0.184-0.386 0.469-0.386 0.789v11c0 0.828 0.337 1.58 0.879 2.121s1.293 0.879 2.121 0.879h14c0.828 0 1.58-0.337 2.121-0.879s0.879-1.293 0.879-2.121v-11c-0.001-0.3-0.134-0.593-0.386-0.789l-9-7c-0.358-0.275-0.861-0.285-1.228 0zM16 21v-9c0-0.552-0.448-1-1-1h-6c-0.552 0-1 0.448-1 1v9h-3c-0.276 0-0.525-0.111-0.707-0.293s-0.293-0.431-0.293-0.707v-10.511l8-6.222 8 6.222v10.511c0 0.276-0.111 0.525-0.293 0.707s-0.431 0.293-0.707 0.293zM10 21v-8h4v8z"></path>
</symbol>
<symbol id="icon-grid" viewBox="0 0 16 16">
<path d="M6 9h-5c-0.553 0-1 0.447-1 1v5c0 0.553 0.447 1 1 1h5c0.553 0 1-0.447 1-1v-5c0-0.553-0.447-1-1-1zM5 14h-3v-3h3v3zM6 0h-5c-0.553 0-1 0.447-1 1v5c0 0.553 0.447 1 1 1h5c0.553 0 1-0.447 1-1v-5c0-0.553-0.447-1-1-1zM5 5h-3v-3h3v3zM15 9h-5c-0.553 0-1 0.447-1 1v5c0 0.553 0.447 1 1 1h5c0.553 0 1-0.447 1-1v-5c0-0.553-0.447-1-1-1zM14 14h-3v-3h3v3zM15 0h-5c-0.553 0-1 0.447-1 1v5c0 0.553 0.447 1 1 1h5c0.553 0 1-0.447 1-1v-5c0-0.553-0.447-1-1-1zM14 5h-3v-3h3v3z"></path>
</symbol>
<symbol id="icon-library" viewBox="0 0 17 16">
<path d="M16 15v-1h-1v-6h1v-1h-3v1h1v6h-3v-6h1v-1h-3v1h1v6h-3v-6h1v-1h-3v1h1v6h-3v-6h1v-1h-3v1h1v6h-1v1h-1v1h17v-1h-1z"></path>
<path d="M8 0h1l8 5v1h-17v-1l8-5z"></path>
</symbol>
<symbol id="icon-stats-dots" viewBox="0 0 16 16">
<path d="M2 14h14v2h-16v-16h2zM4.5 13c-0.828 0-1.5-0.672-1.5-1.5s0.672-1.5 1.5-1.5c0.044 0 0.088 0.002 0.131 0.006l1.612-2.687c-0.154-0.235-0.243-0.517-0.243-0.819 0-0.828 0.672-1.5 1.5-1.5s1.5 0.672 1.5 1.5c0 0.302-0.090 0.583-0.243 0.819l1.612 2.687c0.043-0.004 0.087-0.006 0.131-0.006 0.033 0 0.066 0.001 0.099 0.004l2.662-4.658c-0.165-0.241-0.261-0.532-0.261-0.845 0-0.828 0.672-1.5 1.5-1.5s1.5 0.672 1.5 1.5c0 0.828-0.672 1.5-1.5 1.5-0.033 0-0.066-0.001-0.099-0.004l-2.662 4.658c0.165 0.241 0.261 0.532 0.261 0.845 0 0.828-0.672 1.5-1.5 1.5s-1.5-0.672-1.5-1.5c0-0.302 0.090-0.583 0.243-0.819l-1.612-2.687c-0.043 0.004-0.087 0.006-0.131 0.006s-0.088-0.002-0.131-0.006l-1.612 2.687c0.154 0.235 0.243 0.517 0.243 0.819 0 0.828-0.672 1.5-1.5 1.5z"></path>
</symbol>
<symbol id="icon-leaf" viewBox="0 0 16 16">
<path d="M15.802 2.102c-1.73-1.311-4.393-2.094-7.124-2.094-3.377 0-6.129 1.179-7.549 3.235-0.667 0.965-1.036 2.109-1.097 3.398-0.054 1.148 0.139 2.418 0.573 3.784 1.482-4.444 5.622-7.923 10.395-7.923 0 0-4.466 1.175-7.274 4.816-0.002 0.002-0.039 0.048-0.103 0.136-0.564 0.754-1.055 1.612-1.423 2.583-0.623 1.482-1.2 3.515-1.2 5.965h2c0 0-0.304-1.91 0.224-4.106 0.873 0.118 1.654 0.177 2.357 0.177 1.839 0 3.146-0.398 4.115-1.252 0.868-0.765 1.347-1.794 1.854-2.882 0.774-1.663 1.651-3.547 4.198-5.002 0.146-0.083 0.24-0.234 0.251-0.402s-0.063-0.329-0.197-0.431z"></path>
</symbol>
<symbol id="icon-heart" viewBox="0 0 32 32">
<path d="M29.193 5.265c-3.629-3.596-9.432-3.671-13.191-0.288-3.76-3.383-9.561-3.308-13.192 0.288-3.741 3.704-3.741 9.709 0 13.415 1.069 1.059 11.053 10.941 11.053 10.941 1.183 1.172 3.096 1.172 4.278 0 0 0 10.932-10.822 11.053-10.941 3.742-3.706 3.742-9.711-0.001-13.415zM27.768 17.268l-11.053 10.941c-0.393 0.391-1.034 0.391-1.425 0l-11.053-10.941c-2.95-2.92-2.95-7.671 0-10.591 2.844-2.815 7.416-2.914 10.409-0.222l1.356 1.22 1.355-1.22c2.994-2.692 7.566-2.594 10.41 0.222 2.95 2.919 2.95 7.67 0.001 10.591zM9.253 7.501c0.277 0 0.5 0.224 0.5 0.5s-0.224 0.5-0.5 0.5h-0.001c-1.794 0-3.249 1.455-3.249 3.249v0.001c0 0.276-0.224 0.5-0.5 0.5s-0.5-0.224-0.5-0.5v0c0-2.346 1.901-4.247 4.246-4.249 0.002 0 0.002-0.001 0.004-0.001z"></path>
</symbol>
<symbol id="icon-random" viewBox="0 0 28 28">
<path d="M10.406 7.516c-0.875 1.344-1.516 2.797-2.141 4.266-0.906-1.891-1.906-3.781-4.266-3.781h-3.5c-0.281 0-0.5-0.219-0.5-0.5v-3c0-0.281 0.219-0.5 0.5-0.5h3.5c2.781 0 4.828 1.297 6.406 3.516zM28 20c0 0.125-0.047 0.266-0.141 0.359l-5 5c-0.094 0.094-0.234 0.141-0.359 0.141-0.266 0-0.5-0.234-0.5-0.5v-3c-4.641 0-7.5 0.547-10.391-3.516 0.859-1.344 1.5-2.797 2.125-4.266 0.906 1.891 1.906 3.781 4.266 3.781h4v-3c0-0.281 0.219-0.5 0.5-0.5 0.141 0 0.266 0.063 0.375 0.156l4.984 4.984c0.094 0.094 0.141 0.234 0.141 0.359zM28 6c0 0.125-0.047 0.266-0.141 0.359l-5 5c-0.094 0.094-0.234 0.141-0.359 0.141-0.266 0-0.5-0.219-0.5-0.5v-3h-4c-2.078 0-3.063 1.422-3.938 3.109-0.453 0.875-0.844 1.781-1.219 2.672-1.734 4.031-3.766 8.219-8.844 8.219h-3.5c-0.281 0-0.5-0.219-0.5-0.5v-3c0-0.281 0.219-0.5 0.5-0.5h3.5c2.078 0 3.063-1.422 3.938-3.109 0.453-0.875 0.844-1.781 1.219-2.672 1.734-4.031 3.766-8.219 8.844-8.219h4v-3c0-0.281 0.219-0.5 0.5-0.5 0.141 0 0.266 0.063 0.375 0.156l4.984 4.984c0.094 0.094 0.141 0.234 0.141 0.359z"></path>
</symbol>
<symbol id="icon-user-o" viewBox="0 0 24 28">
<path d="M18.766 12.25c2.203 0.641 5.234 2.812 5.234 9.922 0 3.219-2.391 5.828-5.328 5.828h-13.344c-2.938 0-5.328-2.609-5.328-5.828 0-7.109 3.031-9.281 5.234-9.922-0.781-1.234-1.234-2.688-1.234-4.25 0-4.406 3.594-8 8-8s8 3.594 8 8c0 1.563-0.453 3.016-1.234 4.25zM12 2c-3.313 0-6 2.688-6 6s2.688 6 6 6 6-2.688 6-6-2.688-6-6-6zM18.672 26c1.828 0 3.328-1.703 3.328-3.828 0-4.922-1.656-8-4.75-8.156-1.406 1.234-3.234 1.984-5.25 1.984s-3.844-0.75-5.25-1.984c-3.094 0.156-4.75 3.234-4.75 8.156 0 2.125 1.5 3.828 3.328 3.828h13.344z"></path>
</symbol>
<symbol id="icon-diamond" viewBox="0 0 32 28">
<path d="M3.313 12l9.734 10.391-4.688-10.391h-5.047zM16 24.063l5.453-12.063h-10.906zM8.406 10l3.187-6h-4.094l-4.5 6h5.406zM18.953 22.391l9.734-10.391h-5.047zM10.672 10h10.656l-3.187-6h-4.281zM23.594 10h5.406l-4.5-6h-4.094zM25.797 2.406l6 8c0.297 0.375 0.266 0.922-0.063 1.281l-15 16c-0.187 0.203-0.453 0.313-0.734 0.313s-0.547-0.109-0.734-0.313l-15-16c-0.328-0.359-0.359-0.906-0.063-1.281l6-8c0.187-0.266 0.484-0.406 0.797-0.406h18c0.313 0 0.609 0.141 0.797 0.406z"></path>
</symbol>
</defs>
</svg>
